<?xml version="1.0" encoding="UTF-8" standalone="no"?>
<svg width="44px" height="44px" viewBox="0 0 44 44" version="1.1" xmlns="http://www.w3.org/2000/svg" xmlns:xlink="http://www.w3.org/1999/xlink" xmlns:sketch="http://www.bohemiancoding.com/sketch/ns">
    <!-- Generator: Sketch 3.3.2 (12043) - http://www.bohemiancoding.com/sketch -->
    <title>Slice 1</title>
    <desc>Created with Sketch.</desc>
    <defs></defs>
    <g id="Page-1" stroke="none" stroke-width="1" fill="none" fill-rule="evenodd" sketch:type="MSPage">
        <g id="Circle" sketch:type="MSLayerGroup">
            <rect id="circle" fill="#4990E2" sketch:type="MSShapeGroup" x="0" y="0" width="44" height="44" rx="40"></rect>
            <path d="M22.946,35.9196 C24.1076058,36.315602 25.1173957,36.6257989 25.9754,36.8502 C26.8334043,37.0746011 27.7507951,37.1868 28.7276,37.1868 C29.7836053,37.1868 30.6349968,36.883203 31.2818,36.276 C31.9286032,35.668797 32.252,34.7976057 32.252,33.6624 C32.252,32.4479939 32.0672018,29.3656048 31.6976,28.4152 C31.2487978,29.6032059 30.5888044,30.5205968 29.7176,31.1674 C28.8463956,31.8142032 27.711207,32.1376 26.312,32.1376 C25.0183935,32.1376 23.8898048,31.9000024 22.9262,31.4248 C21.9625952,30.9495976 21.1640032,30.2830043 20.5304,29.425 C19.8967968,28.5669957 19.4282015,27.5308061 19.1246,26.3164 C18.8209985,25.1019939 18.6692,23.7556074 18.6692,22.2772 C18.6692,20.7723925 18.9133976,19.3732065 19.4018,18.0796 C19.8902024,16.7859935 20.5699956,15.6706047 21.4412,14.7334 C22.3124044,13.7961953 23.3551939,13.0636026 24.5696,12.5356 C25.7840061,12.0075974 27.1303926,11.7436 28.6088,11.7436 C29.400804,11.7436 30.2257957,11.7963995 31.0838,11.902 C31.9418043,12.0076005 32.7469962,12.1263993 33.4994,12.2584 C34.2518038,12.3904007 34.9117972,12.5157994 35.4794,12.6346 C36.0470028,12.7534006 36.4231991,12.8391997 36.608,12.892 C36.608,12.892 37.0898079,38.6849925 35.519,40.1766 C33.9481921,41.6682075 31.8164135,42.414 29.1236,42.414 C27.9091939,42.414 26.6420066,42.2688015 25.322,41.9784 C24.0019934,41.6879985 22.7216062,41.2788026 21.4808,40.7508 L22.946,35.9196 Z M26.7366,16.8916 C26.3801982,17.2612018 26.0766013,17.749597 25.8258,18.3568 C25.5749987,18.964003 25.3770007,19.6767959 25.2318,20.4952 C25.0865993,21.3136041 25.014,22.1583956 25.014,23.0296 L25.014,27.2668 C25.1724008,27.3196003 25.4165984,27.3789997 25.7466,27.445 C26.0766017,27.5110003 26.3735987,27.544 26.6376,27.544 C27.2712032,27.544 27.7991979,27.4054014 28.2216,27.1282 C28.6440021,26.8509986 28.9805987,26.4682024 29.2314,25.9798 C29.4822013,25.4913976 29.6603995,24.9106034 29.766,24.2374 C29.8716005,23.5641966 29.9244,22.831604 29.9244,22.0396 C29.9244,21.3003963 29.9112001,20.5876034 29.8848,19.9012 C29.8583999,19.2147966 29.7726007,18.6076026 29.6274,18.0796 C29.4821993,17.5515974 29.2776013,17.1292016 29.0136,16.8124 C28.7495987,16.4955984 28.3800024,16.3372 27.9048,16.3372 C27.4823979,16.3372 27.0930018,16.5219982 26.7366,16.8916 L26.7366,16.8916 Z" id="g" fill="#FFFFFF" sketch:type="MSShapeGroup"></path>
            <path d="M6.6572,4.2592 L12.914,1.19 L12.914,13.7236 C13.9436051,12.4035934 15.3163914,11.7436 17.0324,11.7436 C18.2732062,11.7436 19.3621953,11.9811976 20.2994,12.4564 C21.2366047,12.9316024 22.0153969,13.5981957 22.6358,14.4562 C23.2562031,15.3142043 23.7181985,16.3503939 24.0218,17.5648 C24.3254015,18.7792061 24.4772,20.1387925 24.4772,21.6436 C24.4772,23.1484075 24.2330024,24.5409936 23.7446,25.8214 C23.2561976,27.1018064 22.5764044,28.2105953 21.7052,29.1478 C20.8339956,30.0850047 19.7912061,30.8175974 18.5768,31.3456 C17.3623939,31.8736026 16.0160074,32.1376 14.5376,32.1376 C13.7191959,32.1376 12.8678044,32.0848005 11.9834,31.9792 C11.0989956,31.8735995 10.2806038,31.7548007 9.5282,31.6228 C8.77579624,31.4907993 8.13560264,31.3654006 7.6076,31.2466 C7.07959736,31.1277994 6.76280053,31.0420003 6.6572,30.9892 L6.6572,4.2592 Z M15.1866,16.8916 C14.8301982,17.2612018 14.5266013,17.749597 14.2758,18.3568 C14.0249987,18.964003 13.8270007,19.6767959 13.6818,20.4952 C13.5365993,21.3136041 13.464,22.1583956 13.464,23.0296 L13.464,27.2668 C13.6224008,27.3196003 13.8665983,27.3789997 14.1966,27.445 C14.5266016,27.5110003 14.8235987,27.544 15.0876,27.544 C15.7212032,27.544 16.2491979,27.4054014 16.6716,27.1282 C17.0940021,26.8509986 17.4305987,26.4682024 17.6814,25.9798 C17.9322013,25.4913976 18.1103995,24.9106034 18.216,24.2374 C18.3216005,23.5641966 18.3744,22.831604 18.3744,22.0396 C18.3744,21.3003963 18.3612001,20.5876034 18.3348,19.9012 C18.3083999,19.2147966 18.2226007,18.6076026 18.0774,18.0796 C17.9321993,17.5515974 17.7276013,17.1292016 17.4636,16.8124 C17.1995987,16.4955984 16.8300024,16.3372 16.3548,16.3372 C15.9323979,16.3372 15.5430018,16.5219982 15.1866,16.8916 L15.1866,16.8916 Z" id="b" fill="#FFFFFF" sketch:type="MSShapeGroup"></path>
        </g>
    </g>
</svg>