<?xml version="1.0" encoding="UTF-8" standalone="no"?>
<svg width="50px" height="50px" viewBox="0 0 50 50" version="1.1" xmlns="http://www.w3.org/2000/svg" xmlns:xlink="http://www.w3.org/1999/xlink" xmlns:sketch="http://www.bohemiancoding.com/sketch/ns">
    <!-- Generator: Sketch 3.3.2 (12043) - http://www.bohemiancoding.com/sketch -->
    <title>Slice 1</title>
    <desc>Created with Sketch.</desc>
    <defs></defs>
    <g id="Page-1" stroke="none" stroke-width="1" fill="none" fill-rule="evenodd" sketch:type="MSPage">
        <g id="facebook" sketch:type="MSLayerGroup" fill="#2275D3">
            <path d="M25.347,0.157 C11.747,0.157 0.722,11.184 0.722,24.782 C0.722,38.382 11.747,49.405 25.347,49.405 C38.947,49.405 49.972,38.382 49.972,24.782 C49.972,11.184 38.946,0.157 25.347,0.157 L25.347,0.157 Z M31.864,24.679 L27.6,24.679 L27.6,39.886 L21.28,39.886 L21.28,24.679 L18.274,24.679 L18.274,19.31 L21.28,19.31 L21.28,15.831 C21.28,13.341 22.462,9.454 27.659,9.454 L32.339,9.472 L32.339,14.687 L28.941,14.687 C28.386,14.687 27.601,14.964 27.601,16.148 L27.601,19.311 L32.419,19.311 L31.864,24.679 L31.864,24.679 Z" id="Shape" sketch:type="MSShapeGroup"></path>
        </g>
    </g>
</svg>
