<?xml version="1.0" encoding="UTF-8" standalone="no"?>
<svg width="50px" height="41px" viewBox="0 0 50 41" version="1.1" xmlns="http://www.w3.org/2000/svg" xmlns:xlink="http://www.w3.org/1999/xlink" xmlns:sketch="http://www.bohemiancoding.com/sketch/ns">
    <!-- Generator: Sketch 3.3.2 (12043) - http://www.bohemiancoding.com/sketch -->
    <title>Github</title>
    <desc></desc>
    <defs></defs>
    <g id="Page-1" stroke="none" stroke-width="1" fill="none" fill-rule="evenodd" sketch:type="MSPage">
        <g id="github_small" sketch:type="MSLayerGroup" fill="#2275D3">
            <g id="Group" sketch:type="MSShapeGroup">
                <path d="M49.7253,19.8912 C49.7354,19.8923 49.7468,19.8934 49.7569,19.8934 C49.8359,19.8934 49.9081,19.8359 49.9229,19.7546 C49.9397,19.663 49.8788,19.575 49.7874,19.557 C47.4759,19.1312 45.7848,18.6604 40.0791,18.7079 C40.4347,17.3923 40.6267,15.8363 40.665,13.9935 C40.656,8.9969 38.2644,7.2297 37.8049,6.3999 C38.4824,2.6171 37.6919,0.8951 37.3249,0.3046 C35.9699,-0.1776 32.6107,1.5445 30.7757,2.7583 C27.7834,1.8832 21.46,1.9678 19.0888,2.9841 C14.7132,-0.1494 12.3984,0.3305 12.3984,0.3305 C12.3984,0.3305 10.9023,3.0123 12.0033,6.9361 C10.5636,8.7711 9.4908,10.0696 9.4908,13.5113 C9.4908,15.4501 9.7189,17.1856 10.2338,18.701 C7.9438,18.6954 3.1441,19.0036 0.8959,19.5592 C0.8056,19.5818 0.7501,19.6744 0.7716,19.7648 C0.7909,19.8416 0.8608,19.8935 0.9365,19.8935 C0.95,19.8935 0.9636,19.8924 0.9771,19.889 C3.2455,19.3278 8.2056,19.0229 10.3556,19.041 C10.4786,19.3674 10.6165,19.6836 10.7688,19.9896 C5.2416,20.1363 3.7513,20.9256 1.4309,21.5049 C1.2627,21.5479 1.0978,21.5885 0.9375,21.6281 C0.8472,21.6507 0.7908,21.7432 0.8132,21.8335 C0.8325,21.9103 0.9013,21.9623 0.9781,21.9622 C0.9916,21.9622 1.0052,21.9611 1.0187,21.9577 C1.1791,21.9171 1.3439,21.8764 1.5133,21.8336 C3.8406,21.2521 5.3509,20.4582 10.9448,20.3238 C12.589,23.3094 15.7596,25.1668 21.1074,25.6806 C20.3441,26.2599 19.4272,27.3597 19.3008,28.6312 C18.3411,29.2523 16.4113,29.4566 14.9105,28.9835 C12.808,28.3196 12.0029,24.1564 8.8547,24.7491 C8.1727,24.8779 8.3082,25.3272 8.8977,25.7089 C9.8575,26.3299 10.7609,27.1067 11.4575,28.761 C11.9928,30.0314 13.1174,32.3009 16.6743,32.3009 C18.0858,32.3009 19.0749,32.1316 19.0749,32.1316 C19.0749,32.1316 19.102,35.3734 19.102,36.6336 C19.102,38.0868 17.1406,38.4968 17.1406,39.1957 C17.1406,39.4723 17.7899,39.4983 18.3116,39.4983 C19.3425,39.4983 21.488,38.6378 21.488,37.1271 C21.488,35.9268 21.5072,31.891 21.5072,31.1853 C21.5072,29.6417 22.3348,29.1528 22.3348,29.1528 C22.3348,29.1528 22.4376,37.3923 22.1372,38.4967 C21.7849,39.7953 21.1492,39.6112 21.1492,40.1905 C21.1492,41.052 23.7317,40.4016 24.5876,38.5102 C25.2493,37.0378 24.9603,28.9551 24.9603,28.9551 L25.666,28.9405 C25.666,28.9405 25.7056,32.6408 25.6819,34.3322 C25.657,36.0835 25.5385,38.299 26.5784,39.3436 C27.2616,40.0301 29.4771,41.235 29.4771,40.134 C29.4771,39.4937 28.2632,38.9675 28.2632,37.2354 L28.2632,29.2657 C29.232,29.2657 29.0863,31.8864 29.0863,31.8864 L29.1575,36.7554 C29.1575,36.7554 28.9441,38.5294 31.076,39.2724 C31.8281,39.5355 33.4382,39.6066 33.5139,39.1651 C33.5896,38.7225 31.5751,38.0641 31.557,36.69 C31.5458,35.8521 31.5944,35.3632 31.5944,31.7216 C31.5944,28.08 31.1054,26.7341 29.4015,25.6613 C34.66,25.1204 37.9143,23.8196 39.5009,20.335 C41.3234,20.3948 45.1396,20.5812 49.575,21.9373 C49.5907,21.9429 49.6077,21.9452 49.6247,21.9452 C49.697,21.9452 49.7636,21.8977 49.7862,21.8254 C49.8132,21.7351 49.7636,21.6402 49.6732,21.6131 C45.2988,20.2751 41.5989,20.0661 39.6455,20.0007 C39.7685,19.6981 39.8815,19.3808 39.9819,19.0477 C45.7206,18.9946 47.4161,19.4644 49.7253,19.8912 L49.7253,19.8912 Z M9.8857,25.4308 C9.6753,25.4308 9.5046,25.3172 9.5046,25.1768 C9.5046,25.0365 9.6753,24.9228 9.8857,24.9228 C10.0961,24.9228 10.2668,25.0366 10.2668,25.1768 C10.2668,25.3171 10.0962,25.4308 9.8857,25.4308 L9.8857,25.4308 Z M11.0714,26.0754 C10.861,26.0754 10.6903,25.9616 10.6903,25.8214 C10.6903,25.681 10.861,25.5674 11.0714,25.5674 C11.2818,25.5674 11.4525,25.681 11.4525,25.8214 C11.4525,25.9617 11.2819,26.0754 11.0714,26.0754 L11.0714,26.0754 Z M11.4148,26.6824 C11.4148,26.5421 11.5855,26.4284 11.7959,26.4284 C12.0063,26.4284 12.177,26.5422 12.177,26.6824 C12.177,26.8228 12.0063,26.9364 11.7959,26.9364 C11.5855,26.9364 11.4148,26.8228 11.4148,26.6824 L11.4148,26.6824 Z M12.4312,27.9104 C12.2206,27.9104 12.05,27.7966 12.05,27.6562 C12.05,27.5159 12.2207,27.4022 12.4312,27.4022 C12.6416,27.4022 12.8123,27.516 12.8123,27.6562 C12.8123,27.7966 12.6416,27.9104 12.4312,27.9104 L12.4312,27.9104 Z M13.1556,28.8278 C12.9452,28.8278 12.7745,28.7142 12.7745,28.5738 C12.7745,28.4335 12.9452,28.3198 13.1556,28.3198 C13.366,28.3198 13.5367,28.4336 13.5367,28.5738 C13.5367,28.7141 13.3661,28.8278 13.1556,28.8278 L13.1556,28.8278 Z M14.1343,29.6089 C13.9239,29.6089 13.7532,29.4951 13.7532,29.3549 C13.7532,29.2145 13.9239,29.1007 14.1343,29.1007 C14.3447,29.1007 14.5154,29.2145 14.5154,29.3549 C14.5154,29.4951 14.3447,29.6089 14.1343,29.6089 L14.1343,29.6089 Z M15.5034,30.1169 C15.293,30.1169 15.1223,30.0033 15.1223,29.8629 C15.1223,29.7226 15.293,29.6089 15.5034,29.6089 C15.7138,29.6089 15.8845,29.7227 15.8845,29.8629 C15.8845,30.0033 15.7139,30.1169 15.5034,30.1169 L15.5034,30.1169 Z M16.8772,30.1169 C16.6668,30.1169 16.4961,30.0033 16.4961,29.8629 C16.4961,29.7226 16.6668,29.6089 16.8772,29.6089 C17.0876,29.6089 17.2583,29.7227 17.2583,29.8629 C17.2583,30.0033 17.0876,30.1169 16.8772,30.1169 L16.8772,30.1169 Z M18.2557,29.9005 C18.0453,29.9005 17.8746,29.7867 17.8746,29.6465 C17.8746,29.5063 18.0453,29.3925 18.2557,29.3925 C18.4663,29.3925 18.6368,29.5063 18.6368,29.6465 C18.6368,29.7867 18.4663,29.9005 18.2557,29.9005 L18.2557,29.9005 Z M29.0497,24.4921 C27.9131,24.5298 26.7343,24.549 25.5469,24.549 C24.3479,24.549 23.1905,24.5295 22.1071,24.4908 C16.3298,24.2883 13.1479,21.8499 13.1479,17.6256 C13.1479,17.1869 13.2407,15.6448 14.436,14.2118 C15.5977,12.8191 17.3778,12.0826 19.5838,12.0826 C19.7341,12.0826 20.003,12.0991 20.5489,12.1329 C21.7186,12.2057 23.6766,12.3274 25.6152,12.3274 C27.3707,12.3274 29.1462,12.1979 30.1002,12.1281 C30.5467,12.0953 30.7259,12.0827 30.8413,12.0827 C35.5343,12.0827 37.2062,15.0811 37.2062,17.887 C37.2061,20.7782 35.791,24.2712 29.0497,24.4921 L29.0497,24.4921 Z" id="Shape"></path>
                <path d="M8.7378,28.1456 C9.6471,28.1456 8.7533,26.7352 8.7378,26.0754 C8.7336,26.7175 7.8285,28.1456 8.7378,28.1456 L8.7378,28.1456 Z" id="Shape"></path>
                <path d="M26.4469,22.0763 C26.3534,22.0763 26.2776,22.1521 26.2776,22.2456 C26.2776,22.6188 25.839,23.0361 25.252,23.0361 C25.1674,23.0361 25.0859,23.0267 25.0079,23.0099 C24.8131,22.968 24.641,22.8799 24.5001,22.7763 C24.4719,22.7557 24.445,22.7343 24.4194,22.7126 C24.3426,22.6474 24.2778,22.5789 24.2268,22.5137 C24.1416,22.4049 24.0947,22.3054 24.0947,22.2456 C24.0947,22.1521 24.0189,22.0763 23.9253,22.0763 C23.8318,22.0763 23.756,22.1521 23.756,22.2456 C23.756,22.2939 23.7659,22.3478 23.7848,22.4051 C23.8132,22.491 23.8622,22.5847 23.9288,22.6788 C23.9956,22.7728 24.0802,22.8674 24.1799,22.9552 C24.2796,23.0428 24.3945,23.1238 24.5221,23.1908 C24.6815,23.2744 24.8605,23.3361 25.054,23.3617 C25.1185,23.3702 25.1846,23.3748 25.2521,23.3748 C25.6039,23.3748 25.909,23.2609 26.141,23.0881 C26.1741,23.0634 26.2057,23.0376 26.2358,23.0106 C26.2959,22.9568 26.3498,22.8987 26.3968,22.8377 C26.5141,22.6854 26.5885,22.5148 26.6099,22.3464 C26.6142,22.3127 26.6164,22.2791 26.6164,22.2457 C26.6163,22.1521 26.5405,22.0763 26.4469,22.0763 L26.4469,22.0763 Z" id="Shape"></path>
                <path d="M24.7493,21.1698 C24.7913,21.2318 24.8449,21.2854 24.9069,21.3274 C24.9302,21.343 24.9546,21.3572 24.9801,21.3695 C25.0311,21.394 25.0863,21.4114 25.1443,21.4203 C25.1732,21.4247 25.2029,21.427 25.2332,21.427 C25.3539,21.427 25.4662,21.3903 25.5594,21.3274 C25.5982,21.3012 25.6336,21.2704 25.665,21.2358 C25.7088,21.1877 25.7409,21.1303 25.7667,21.0695 C25.7965,20.9994 25.8166,20.9244 25.8166,20.8434 C25.8166,20.5213 25.5554,20.26 25.2332,20.26 C25.0721,20.26 24.9262,20.3253 24.8206,20.4309 C24.816,20.4355 24.8125,20.4412 24.8081,20.4459 C24.7781,20.478 24.7526,20.5138 24.7303,20.5521 C24.6993,20.6056 24.6743,20.6632 24.6615,20.7258 C24.6538,20.7638 24.6497,20.8031 24.6497,20.8434 C24.6497,20.8837 24.6539,20.923 24.6615,20.9611 C24.6771,21.0371 24.7074,21.1077 24.7493,21.1698 L24.7493,21.1698 Z" id="Shape"></path>
                <path d="M20.4292,15.0514 C20.3098,14.9045 20.1807,14.7744 20.0437,14.6635 C19.9066,14.5525 19.7615,14.4607 19.6101,14.3906 C19.4586,14.3204 19.3008,14.2717 19.1382,14.2472 C19.0569,14.2349 18.9744,14.2285 18.891,14.2285 C17.5553,14.2285 16.4727,15.842 16.4727,17.8325 C16.4727,19.8229 17.5553,21.2106 18.891,21.2106 C18.9744,21.2106 19.0569,21.2052 19.1382,21.1946 C19.3008,21.1732 19.4586,21.131 19.6101,21.0695 C19.7615,21.0079 19.9066,20.9269 20.0437,20.828 C20.1807,20.7291 20.3098,20.6125 20.4292,20.4795 C20.5486,20.3465 20.6584,20.1972 20.757,20.0331 C21.1021,19.4588 21.3092,18.7033 21.3092,17.8325 C21.3092,16.9617 21.102,16.1631 20.757,15.54 C20.6584,15.3619 20.5486,15.1984 20.4292,15.0514 L20.4292,15.0514 Z" id="Shape"></path>
                <path d="M31.9612,14.2284 C30.6255,14.2284 29.5429,15.8419 29.5429,17.8324 C29.5429,19.8228 30.6255,21.2105 31.9612,21.2105 C33.2968,21.2105 34.3794,19.8228 34.3794,17.8324 C34.3794,15.8419 33.2968,14.2284 31.9612,14.2284 L31.9612,14.2284 Z" id="Shape"></path>
            </g>
        </g>
    </g>
</svg>
