<?xml version="1.0" encoding="UTF-8" standalone="no"?>
<svg width="20px" height="14px" viewBox="0 0 19 13" version="1.1" xmlns="http://www.w3.org/2000/svg" xmlns:xlink="http://www.w3.org/1999/xlink" xmlns:sketch="http://www.bohemiancoding.com/sketch/ns">
    <!-- Generator: Sketch 3.3.2 (12043) - http://www.bohemiancoding.com/sketch -->
    <title>Slice 1</title>
    <desc>Created with Sketch.</desc>
    <defs></defs>
    <g id="Page-1" stroke="none" stroke-width="1" fill="none" fill-rule="evenodd" sketch:type="MSPage">
        <g id="Layer_1" sketch:type="MSLayerGroup" transform="translate(9.500000, 6.500000) rotate(-270.000000) translate(-9.500000, -6.500000) translate(3.500000, -2.500000)" fill="#4A4A4A">
            <path d="M1.293,5.293 C0.902,5.684 0.902,6.316 1.293,6.707 C1.684,7.098 2.316,7.098 2.707,6.707 L5,4.414 L5,16 C5,16.552 5.447,17 6,17 C6.553,17 7,16.552 7,16 L7,4.414 L9.293,6.707 C9.488,6.902 9.744,7 10,7 C10.256,7 10.512,6.902 10.707,6.707 C11.098,6.316 11.098,5.684 10.707,5.293 L6,0.586 L1.293,5.293 Z" id="Shape" sketch:type="MSShapeGroup"></path>
        </g>
    </g>
</svg>
