<?xml version="1.0" encoding="UTF-8" standalone="no"?>
<svg width="342px" height="402px" viewBox="0 0 342 402" version="1.1" xmlns="http://www.w3.org/2000/svg" xmlns:xlink="http://www.w3.org/1999/xlink" xmlns:sketch="http://www.bohemiancoding.com/sketch/ns">
    <!-- Generator: Sketch 3.3.2 (12043) - http://www.bohemiancoding.com/sketch -->
    <title>Down</title>
    <desc></desc>
    <defs></defs>
    <g id="Page-1" stroke="none" stroke-width="1" fill="none" fill-rule="evenodd" sketch:type="MSPage">
        <g id="down" sketch:type="MSLayerGroup" fill="#4A4A4A">
            <g id="Group" sketch:type="MSShapeGroup">
                <path d="M105.3,248.6 C121.7,271.6 139.9,293.4 159.6,313.6 C165.5,320.8 176.5,320.8 182.3,313.6 L182.7,313.2 C202.2,293.2 220.2,271.7 236.4,248.9 L242.8,240 C248.6,232.9 243.6,222.2 234.4,222.2 L199.1,222.2 C199.3,220.9 199.5,219.5 199.6,218.1 C200,208.8 200.4,199.5 200.9,190.3 C202.6,160.4 204.3,130.5 206,100.5 C207.1,81.4 208.2,62.2 209.4,43.1 C209.8,36.4 209,29.9 206.2,23.8 C198.3,6.5 179.9,-2.4 161.5,2.2 C143.5,6.7 131.5,23.8 132.8,43.2 C133.6,55.6 134.4,68 135.1,80.4 C137.6,126.6 140.1,172.9 142.6,219.1 C142.7,220.1 142.8,221.2 142.9,222.2 L107.8,222.2 C98.6,222.2 93.5,232.9 99.4,240 L105.3,248.6 L105.3,248.6 Z" id="XMLID_2_"></path>
                <path d="M12.8,401.1 L16.8,401.1 L33.1,401.1 L308.8,401.1 L319,401.1 L329.2,401.1 C335.8,401.1 341.1,395.8 341.1,389.2 L341.1,312 C341.1,305.4 335.8,300.1 329.2,300.1 L308.9,300.1 C302.3,300.1 297,305.4 297,312 L297,356.2 L45.1,356.2 L45.1,312 C45.1,305.4 39.8,300.1 33.2,300.1 L12.8,300.1 C6.2,300.1 0.9,305.4 0.9,312 L0.9,389.1 C0.9,395.7 6.2,401.1 12.8,401.1 L12.8,401.1 Z" id="XMLID_1_"></path>
            </g>
        </g>
    </g>
</svg>
