<?xml version="1.0" encoding="UTF-8" standalone="no"?>
<svg width="50px" height="49px" viewBox="0 0 50 49" version="1.1" xmlns="http://www.w3.org/2000/svg" xmlns:xlink="http://www.w3.org/1999/xlink" xmlns:sketch="http://www.bohemiancoding.com/sketch/ns">
    <!-- Generator: Sketch 3.3.2 (12043) - http://www.bohemiancoding.com/sketch -->
    <title>Slice 1</title>
    <desc>Created with Sketch.</desc>
    <defs></defs>
    <g id="Page-1" stroke="none" stroke-width="1" fill="none" fill-rule="evenodd" sketch:type="MSPage">
        <g id="github" sketch:type="MSLayerGroup" fill="#4990E2">
            <g id="Group" sketch:type="MSShapeGroup">
                <path d="M25.3402,0.9163 C11.7392,0.9163 0.7102,11.943 0.7102,25.5462 C0.7102,36.4283 7.7675,45.6606 17.5537,48.9175 C18.7845,49.1454 19.2366,48.383 19.2366,47.7326 C19.2366,47.1456 19.2139,45.205 19.2032,43.1469 C12.3511,44.637 10.9053,40.2409 10.9053,40.2409 C9.7848,37.3942 8.1706,36.637 8.1706,36.637 C5.9357,35.1083 8.3391,35.1398 8.3391,35.1398 C10.8121,35.3135 12.1146,37.6783 12.1146,37.6783 C14.3113,41.4434 17.8764,40.3548 19.2821,39.7255 C19.5032,38.1338 20.1412,37.0469 20.8458,36.4319 C15.3751,35.8093 9.624,33.6972 9.624,24.2597 C9.624,21.5709 10.5863,19.3736 12.162,17.6487 C11.9063,17.0281 11.0631,14.5232 12.4006,11.1304 C12.4006,11.1304 14.469,10.4688 19.1753,13.6554 C21.1401,13.1096 23.2472,12.8359 25.3403,12.8264 C27.4333,12.8359 29.542,13.1096 31.5103,13.6554 C36.2115,10.4688 38.2768,11.1304 38.2768,11.1304 C39.6174,14.5232 38.7742,17.0281 38.5185,17.6487 C40.0978,19.3736 41.0533,21.5708 41.0533,24.2597 C41.0533,33.7199 35.2915,35.8025 29.8068,36.4124 C30.6902,37.1768 31.4772,38.6756 31.4772,40.9734 C31.4772,44.2689 31.449,46.9213 31.449,47.7326 C31.449,48.3882 31.8922,49.1562 33.1405,48.9144 C42.9217,45.6539 49.9701,36.4248 49.9701,25.5462 C49.9701,11.943 38.9426,0.9163 25.3402,0.9163 L25.3402,0.9163 Z" id="Shape"></path>
                <path d="M10.0389,36.2793 C9.9847,36.402 9.792,36.4386 9.6167,36.3546 C9.4379,36.2742 9.3379,36.1073 9.3956,35.9846 C9.4486,35.8586 9.6413,35.8236 9.8198,35.9077 C9.9987,35.9882 10.1007,36.1566 10.0389,36.2793 L10.0389,36.2793 L10.0389,36.2793 Z" id="Shape"></path>
                <path d="M11.0366,37.3922 C10.9192,37.5008 10.6893,37.4503 10.5335,37.2783 C10.3722,37.1065 10.3423,36.8767 10.4615,36.7665 C10.5826,36.6577 10.8053,36.7086 10.9665,36.8804 C11.1279,37.0541 11.1593,37.2819 11.0366,37.3922 L11.0366,37.3922 L11.0366,37.3922 Z" id="Shape"></path>
                <path d="M12.0078,38.8105 C11.8568,38.9156 11.6099,38.8172 11.4573,38.5982 C11.3063,38.3791 11.3063,38.1163 11.4608,38.011 C11.6134,37.9059 11.8568,38.0006 12.0113,38.2178 C12.1619,38.4406 12.1619,38.7034 12.0078,38.8105 L12.0078,38.8105 L12.0078,38.8105 Z" id="Shape"></path>
                <path d="M13.3381,40.1812 C13.203,40.3301 12.9154,40.2898 12.7052,40.0867 C12.4897,39.8883 12.4299,39.6064 12.5649,39.4574 C12.702,39.3084 12.9912,39.3502 13.203,39.5518 C13.4169,39.7501 13.4818,40.0337 13.3381,40.1812 L13.3381,40.1812 L13.3381,40.1812 Z" id="Shape"></path>
                <path d="M15.1735,40.9769 C15.1138,41.1696 14.837,41.2573 14.5581,41.1753 C14.2793,41.0908 14.0973,40.865 14.1534,40.6702 C14.2111,40.4759 14.4895,40.3847 14.7703,40.4723 C15.0488,40.5563 15.2312,40.7805 15.1735,40.9769 L15.1735,40.9769 L15.1735,40.9769 Z" id="Shape"></path>
                <path d="M17.1893,41.1243 C17.196,41.3274 16.9594,41.4959 16.6667,41.4995 C16.3723,41.5062 16.1337,41.3418 16.1306,41.1418 C16.1306,40.9366 16.3619,40.7701 16.6564,40.765 C16.9491,40.7594 17.1893,40.9227 17.1893,41.1243 L17.1893,41.1243 L17.1893,41.1243 Z" id="Shape"></path>
                <path d="M19.0649,40.8052 C19.0999,41.0032 18.8963,41.2067 18.6055,41.2609 C18.3196,41.3135 18.0551,41.1908 18.0185,40.9944 C17.9831,40.7913 18.1901,40.5878 18.4758,40.5352 C18.767,40.4846 19.0278,40.6036 19.0649,40.8052 L19.0649,40.8052 L19.0649,40.8052 Z" id="Shape"></path>
            </g>
        </g>
    </g>
</svg>