<?xml version="1.0" encoding="UTF-8" standalone="no"?>
<svg width="50px" height="50px" viewBox="0 0 50 50" version="1.1" xmlns="http://www.w3.org/2000/svg" xmlns:xlink="http://www.w3.org/1999/xlink" xmlns:sketch="http://www.bohemiancoding.com/sketch/ns">
    <!-- Generator: Sketch 3.3.2 (12043) - http://www.bohemiancoding.com/sketch -->
    <title>Slice 1</title>
    <desc>Created with Sketch.</desc>
    <defs></defs>
    <g id="Page-1" stroke="none" stroke-width="1" fill="none" fill-rule="evenodd" sketch:type="MSPage">
        <g id="instagram" sketch:type="MSLayerGroup" fill="#4990E2">
            <g id="Group" sketch:type="MSShapeGroup">
                <path d="M35.512,19.392 L35.512,15.445 L35.512,14.855 L34.922,14.857 L30.975,14.871 L30.99,19.407 L35.512,19.392 Z" id="Shape"></path>
                <path d="M25.225,29.868 C27.823,29.868 29.938,27.755 29.938,25.157 C29.938,24.132 29.604,23.182 29.045,22.409 C28.19,21.223 26.797,20.444 25.225,20.444 C23.653,20.444 22.262,21.223 21.405,22.409 C20.846,23.182 20.514,24.132 20.514,25.157 C20.514,27.755 22.627,29.868 25.225,29.868 L25.225,29.868 Z" id="Shape"></path>
                <path d="M25.348,0.158 C11.748,0.158 0.723,11.181 0.723,24.781 C0.723,38.381 11.748,49.406 25.348,49.406 C38.946,49.406 49.971,38.381 49.971,24.781 C49.971,11.181 38.945,0.158 25.348,0.158 L25.348,0.158 Z M38.611,22.409 L38.611,33.37 C38.611,36.222 36.289,38.542 33.437,38.542 L17.012,38.542 C14.159,38.542 11.839,36.222 11.839,33.37 L11.839,22.409 L11.839,16.945 C11.839,14.092 14.159,11.772 17.012,11.772 L33.437,11.772 C36.289,11.772 38.611,14.092 38.611,16.945 L38.611,22.409 L38.611,22.409 Z" id="Shape"></path>
                <path d="M32.545,25.157 C32.545,29.192 29.262,32.477 25.225,32.477 C21.188,32.477 17.907,29.192 17.907,25.157 C17.907,24.184 18.1,23.259 18.444,22.409 L14.448,22.409 L14.448,33.37 C14.448,34.784 15.598,35.934 17.012,35.934 L33.437,35.934 C34.851,35.934 36.001,34.784 36.001,33.37 L36.001,22.409 L32.003,22.409 C32.35,23.259 32.545,24.185 32.545,25.157 L32.545,25.157 Z" id="Shape"></path>
            </g>
        </g>
    </g>
</svg>