<?xml version="1.0" encoding="UTF-8" standalone="no"?>
<svg width="216px" height="191px" viewBox="0 0 216 191" version="1.1" xmlns="http://www.w3.org/2000/svg" xmlns:xlink="http://www.w3.org/1999/xlink" xmlns:sketch="http://www.bohemiancoding.com/sketch/ns">
    <!-- Generator: Sketch 3.3.2 (12043) - http://www.bohemiancoding.com/sketch -->
    <title>Slice 1</title>
    <desc>Created with Sketch.</desc>
    <defs></defs>
    <g id="Page-1" stroke="none" stroke-width="1" fill="none" fill-rule="evenodd" sketch:type="MSPage">
        <g id="twitter" sketch:type="MSLayerGroup" fill="#2275D3">
            <g id="Page-1" sketch:type="MSShapeGroup">
                <g id="Twitter">
                    <path d="M107.58195,55.3651986 L108.023654,63.3579955 L100.661902,62.3792858 C73.8651242,58.6275643 50.4547524,45.9043371 30.5780216,24.5358398 L20.8605085,13.9331502 L18.357513,21.7628279 C13.0570513,39.2164864 16.4434572,57.6488546 27.4860855,70.0458452 C33.3754869,76.8968142 32.0503717,77.8755239 21.8911539,73.7975667 C18.357513,72.4926195 15.265577,71.5139098 14.9711062,72.0032656 C13.9404617,73.1450936 17.4741026,87.9888585 20.2715679,93.8611178 C24.0996796,102.017033 31.9031368,110.009829 40.4427686,114.74026 L47.6572862,118.491981 L39.1176534,118.655099 C30.8724914,118.655099 30.5780216,118.818217 31.461432,122.243701 C34.4061332,132.846392 46.0377011,144.101554 58.9943852,148.995103 L68.1229567,152.420588 L60.1722646,157.640373 C48.3934617,165.143815 34.5533672,169.384892 20.7132736,169.711128 C14.0876967,169.874245 8.64,170.526719 8.64,171.016074 C8.64,172.647256 26.602675,181.781882 37.0563636,185.370484 C68.4174275,195.973174 105.667894,191.405861 133.642552,173.29973 C153.519283,160.413384 173.396014,134.803811 182.671822,110.009829 C187.677813,96.7972469 192.683805,72.6557387 192.683805,61.0743385 C192.683805,53.5708974 193.125509,52.5921877 201.370671,43.6206811 C206.229428,38.400895 210.793715,32.691755 211.677125,31.0605712 C213.149475,27.9613237 213.002241,27.9613237 205.493254,30.7343346 C192.978274,35.6278841 191.211454,34.975411 197.395326,27.6350872 C201.959612,22.4153011 207.407309,12.9544405 207.407309,10.1814287 C207.407309,9.69207386 205.198783,10.5076663 202.695787,11.9757299 C200.045556,13.6069137 194.156155,16.053688 189.739103,17.5217525 L181.788411,20.2947634 L174.573894,14.911859 C170.598547,11.9757299 165.003616,8.71336415 162.058915,7.73465444 C154.549928,5.45099845 143.065595,5.77723502 136.292782,8.38712758 C117.888402,15.7274514 106.256833,34.6491744 107.58195,55.3651986 C107.58195,55.3651986 106.256833,34.6491744 107.58195,55.3651986 L107.58195,55.3651986 Z" id="Oval-1"></path>
                </g>
            </g>
        </g>
    </g>
</svg>
